<svg width="28" height="25" viewBox="0 0 28 25" fill="none" xmlns="http://www.w3.org/2000/svg">
<path d="M9.95601 13.8935C10.4534 12.9985 11.7401 12.9972 12.2393 13.8911L13.4869 16.1253C13.7757 16.6425 13.7759 17.273 13.4888 17.7897L11.6816 21.0453C11.0119 22.2518 9.48889 22.6838 8.28543 22.0086C7.08942 21.3376 6.66087 19.826 7.32676 18.6271L9.95601 13.8935Z" fill="url(#paint0_linear_81_392)"/>
<path d="M2.17149 11.0591C2.22824 9.6811 3.39417 8.6117 4.77191 8.67396L8.17109 8.82756C8.96297 8.86283 9.67882 9.30609 10.0659 9.9992C10.4519 10.6906 10.4538 11.5325 10.0684 12.2252C9.51285 13.2255 8.43901 13.8252 7.29596 13.7735L4.54698 13.6491C3.17705 13.5872 2.11506 12.4293 2.17149 11.0591Z" fill="url(#paint1_linear_81_392)"/>
<path d="M18.042 13.8679C17.0192 13.9139 16.3431 12.8191 16.8424 11.9252L18.0902 9.69106C18.379 9.17385 18.9156 8.843 19.5062 8.81643L23.2259 8.6474C24.6044 8.58476 25.771 9.65486 25.8274 11.0336C25.8835 12.4039 24.8213 13.5616 23.4513 13.6235L18.042 13.8679Z" fill="url(#paint2_linear_81_392)"/>
<path d="M19.712 21.9833C18.509 22.6578 16.987 22.226 16.3173 21.0204L14.6652 18.0458C14.2798 17.3531 14.2817 16.5111 14.6688 15.818C15.0549 15.1267 15.7708 14.6834 16.5627 14.6482C17.7058 14.5966 18.7796 15.1963 19.3351 16.1966L20.6712 18.6023C21.337 19.8011 20.9082 21.3127 19.712 21.9833Z" fill="url(#paint3_linear_81_392)"/>
<path d="M14.0251 6.71191C14.564 7.5825 13.9379 8.70653 12.914 8.70653H10.355C9.76264 8.70653 9.21212 8.39936 8.90096 7.89671L6.93964 4.73164C6.21278 3.55868 6.57816 2.01831 7.7544 1.29677C8.92336 0.579688 10.4521 0.94251 11.1741 2.1084L14.0251 6.71191Z" fill="url(#paint4_linear_81_392)"/>
<path d="M20.2957 1.29725C21.4711 2.01864 21.8363 3.558 21.1103 4.73054L19.3189 7.62344C18.902 8.29763 18.166 8.70652 17.3721 8.70652C16.5802 8.70652 15.8442 8.29763 15.4273 7.62344C14.8249 6.65069 14.8249 5.42075 15.4273 4.44797L16.8761 2.10848C17.5982 0.942621 19.1269 0.579947 20.2957 1.29725Z" fill="url(#paint5_linear_81_392)"/>
<defs>
<linearGradient id="paint0_linear_81_392" x1="5.84346" y1="20.2953" x2="13.4451" y2="16.0504" gradientUnits="userSpaceOnUse">
<stop stop-color="#43CF6A"/>
<stop offset="1" stop-color="#9CEEB2"/>
</linearGradient>
<linearGradient id="paint1_linear_81_392" x1="1.94593" y1="13.3159" x2="9.54753" y2="9.07098" gradientUnits="userSpaceOnUse">
<stop stop-color="#5E53F5"/>
<stop offset="1" stop-color="#987FEF"/>
</linearGradient>
<linearGradient id="paint2_linear_81_392" x1="25.6497" y1="14.0113" x2="18.0483" y2="9.76594" gradientUnits="userSpaceOnUse">
<stop stop-color="#43CF6A"/>
<stop offset="1" stop-color="#9CEEB2"/>
</linearGradient>
<linearGradient id="paint3_linear_81_392" x1="21.7518" y1="20.9916" x2="14.1504" y2="16.7462" gradientUnits="userSpaceOnUse">
<stop stop-color="#5E53F5"/>
<stop offset="1" stop-color="#987FEF"/>
</linearGradient>
<linearGradient id="paint4_linear_81_392" x1="10.4408" y1="-1.90735e-06" x2="10.4408" y2="8.70653" gradientUnits="userSpaceOnUse">
<stop stop-color="#43CF6A"/>
<stop offset="1" stop-color="#9CEEB2"/>
</linearGradient>
<linearGradient id="paint5_linear_81_392" x1="18.4352" y1="-7.62939e-06" x2="18.4352" y2="8.70652" gradientUnits="userSpaceOnUse">
<stop stop-color="#5E53F5"/>
<stop offset="1" stop-color="#987FEF"/>
</linearGradient>
</defs>
</svg>
